<?xml version="1.0" encoding="UTF-8" standalone="no"?>
<!DOCTYPE svg PUBLIC "-//W3C//DTD SVG 1.0//EN" "http://www.w3.org/TR/2001/PR-SVG-20010719/DTD/svg10.dtd">
<svg width="30cm" height="30cm" viewBox="338 -262 583 582" xmlns="http://www.w3.org/2000/svg" xmlns:xlink="http://www.w3.org/1999/xlink">
  <g id="Arrière-plan">
    <g>
      <rect style="fill: #92b220; fill-opacity: 1; stroke-opacity: 1; stroke-width: 2.35099e-37; stroke: #000000" x="340" y="160" width="500" height="60" rx="10" ry="10"/>
      <text font-size="12.8" style="fill: #000000; fill-opacity: 1; stroke: none;text-anchor:middle;font-family:sans-serif;font-style:normal;font-weight:700" x="590" y="193.9">
        <tspan x="590" y="193.9">Django</tspan>
      </text>
    </g>
    <g>
      <rect style="fill: #4f628a; fill-opacity: 1; stroke-opacity: 1; stroke-width: 2.35099e-37; stroke: #000000" x="340" y="260" width="220" height="60" rx="10" ry="10"/>
      <text font-size="12.8" style="fill: #ffffff; fill-opacity: 1; stroke: none;text-anchor:middle;font-family:sans-serif;font-style:normal;font-weight:normal" x="450" y="293.9">
        <tspan x="450" y="293.9">Database</tspan>
      </text>
    </g>
    <g>
      <rect style="fill: #ffffff; fill-opacity: 1; stroke-opacity: 1; stroke-width: 2; stroke: #000000" x="340" y="-40" width="580" height="180" rx="10" ry="10"/>
      <text font-size="12.8" style="fill: #000000; fill-opacity: 1; stroke: none;text-anchor:middle;font-family:sans-serif;font-style:normal;font-weight:normal" x="630" y="53.9">
        <tspan x="630" y="53.9"></tspan>
      </text>
    </g>
    <g>
      <rect style="fill: #4f628a; fill-opacity: 1; stroke-opacity: 1; stroke-width: 2.35099e-37; stroke: #000000" x="580" y="260" width="340" height="60" rx="10" ry="10"/>
      <text font-size="12.8" style="fill: #ffffff; fill-opacity: 1; stroke: none;text-anchor:middle;font-family:sans-serif;font-style:normal;font-weight:normal" x="750" y="293.9">
        <tspan x="750" y="293.9">Filesystem (static, media, templates)</tspan>
      </text>
    </g>
    <g>
      <rect style="fill: #f3ad17; fill-opacity: 1; stroke-opacity: 1; stroke-width: 2.35099e-37; stroke: #000000" x="360" y="80" width="140" height="40" rx="10" ry="10"/>
      <text font-size="12.8" style="fill: #000000; fill-opacity: 1; stroke: none;text-anchor:middle;font-family:sans-serif;font-style:normal;font-weight:normal" x="430" y="103.9">
        <tspan x="430" y="103.9">Models</tspan>
      </text>
    </g>
    <g>
      <rect style="fill: #f3ad17; fill-opacity: 1; stroke-opacity: 1; stroke-width: 2.35099e-37; stroke: #000000" x="360" y="0" width="540" height="40" rx="10" ry="10"/>
      <text font-size="12.8" style="fill: #000000; fill-opacity: 1; stroke: none;text-anchor:middle;font-family:sans-serif;font-style:normal;font-weight:normal" x="630" y="23.9">
        <tspan x="630" y="23.9">URLs, Controller, Context, Domain selector</tspan>
      </text>
    </g>
    <g>
      <rect style="fill: #f3ad17; fill-opacity: 1; stroke-opacity: 1; stroke-width: 2.35099e-37; stroke: #000000" x="540" y="80" width="120" height="40" rx="10" ry="10"/>
      <text font-size="12.8" style="fill: #000000; fill-opacity: 1; stroke: none;text-anchor:middle;font-family:sans-serif;font-style:normal;font-weight:normal" x="600" y="103.9">
        <tspan x="600" y="103.9">Workflow</tspan>
      </text>
    </g>
    <g>
      <rect style="fill: #e65911; fill-opacity: 1; stroke-opacity: 1; stroke-width: 2.35099e-37; stroke: #000000" x="339.405" y="-165.563" width="580" height="105.563" rx="10" ry="10"/>
      <text font-size="12.8" style="fill: #ffffff; fill-opacity: 1; stroke: none;text-anchor:middle;font-family:sans-serif;font-style:normal;font-weight:normal" x="629.405" y="-124.882">
        <tspan x="629.405" y="-124.882">Web server</tspan>
        <tspan x="629.405" y="-108.882"></tspan>
        <tspan x="629.405" y="-92.8817">[ www.starts.eu | vertigo.starts.eu | vertigo.ircam.fr | ... ? ]</tspan>
      </text>
    </g>
    <g>
      <rect style="fill: #dd0000; fill-opacity: 1; stroke-opacity: 1; stroke-width: 2.35099e-37; stroke: #000000" x="340" y="-261.839" width="580" height="60" rx="10" ry="10"/>
      <text font-size="12.8" style="fill: #ffffff; fill-opacity: 1; stroke: none;text-anchor:middle;font-family:sans-serif;font-style:normal;font-weight:normal" x="630" y="-227.939">
        <tspan x="630" y="-227.939">Browser</tspan>
      </text>
    </g>
    <g>
      <polyline style="fill: none; stroke-opacity: 1; stroke-width: 2; stroke: #000000" points="511,100 520,100 520,100 529,100 "/>
      <polygon style="fill: #000000; fill-opacity: 1; stroke-opacity: 1; stroke-width: 2; stroke: #000000" fill-rule="evenodd" points="511,95 501,100 511,105 "/>
      <polygon style="fill: #000000; fill-opacity: 1; stroke-opacity: 1; stroke-width: 2; stroke: #000000" fill-rule="evenodd" points="529,105 539,100 529,95 "/>
    </g>
    <g>
      <polyline style="fill: none; stroke-opacity: 1; stroke-width: 2; stroke: #000000" points="600,69 600,51 "/>
      <polygon style="fill: #000000; fill-opacity: 1; stroke-opacity: 1; stroke-width: 2; stroke: #000000" fill-rule="evenodd" points="595,69 600,79 605,69 "/>
      <polygon style="fill: #000000; fill-opacity: 1; stroke-opacity: 1; stroke-width: 2; stroke: #000000" fill-rule="evenodd" points="605,51 600,41 595,51 "/>
    </g>
    <g>
      <polyline style="fill: none; stroke-opacity: 1; stroke-width: 2; stroke: #000000" points="429,149 429,131 "/>
      <polygon style="fill: #000000; fill-opacity: 1; stroke-opacity: 1; stroke-width: 2; stroke: #000000" fill-rule="evenodd" points="424,149 429,159 434,149 "/>
      <polygon style="fill: #000000; fill-opacity: 1; stroke-opacity: 1; stroke-width: 2; stroke: #000000" fill-rule="evenodd" points="434,131 429,121 424,131 "/>
    </g>
    <g>
      <polyline style="fill: none; stroke-opacity: 1; stroke-width: 2; stroke: #000000" points="391.553,-11 391.553,-20 391.553,-20 391.553,-49 "/>
      <polygon style="fill: #000000; fill-opacity: 1; stroke-opacity: 1; stroke-width: 2; stroke: #000000" fill-rule="evenodd" points="386.553,-11 391.553,-1 396.553,-11 "/>
      <polygon style="fill: #000000; fill-opacity: 1; stroke-opacity: 1; stroke-width: 2; stroke: #000000" fill-rule="evenodd" points="396.553,-49 391.553,-59 386.553,-49 "/>
    </g>
    <text font-size="12.8" style="fill: #000000; fill-opacity: 1; stroke: none;text-anchor:start;font-family:sans-serif;font-style:normal;font-weight:normal" x="630" y="50">
      <tspan x="630" y="50"></tspan>
    </text>
    <text font-size="12.8" style="fill: #000000; fill-opacity: 1; stroke: none;text-anchor:start;font-family:sans-serif;font-style:normal;font-weight:700" x="568.078" y="-17.249">
      <tspan x="568.078" y="-17.249">Mezzo + Ulysses</tspan>
    </text>
    <g>
      <polyline style="fill: none; stroke-opacity: 1; stroke-width: 2; stroke: #000000" points="430,69 430,51 "/>
      <polygon style="fill: #000000; fill-opacity: 1; stroke-opacity: 1; stroke-width: 2; stroke: #000000" fill-rule="evenodd" points="425,69 430,79 435,69 "/>
      <polygon style="fill: #000000; fill-opacity: 1; stroke-opacity: 1; stroke-width: 2; stroke: #000000" fill-rule="evenodd" points="435,51 430,41 425,51 "/>
    </g>
    <g>
      <rect style="fill: #f3ad17; fill-opacity: 1; stroke-opacity: 1; stroke-width: 2.35099e-37; stroke: #000000" x="700" y="80" width="119.375" height="40" rx="10" ry="10"/>
      <text font-size="12.8" style="fill: #000000; fill-opacity: 1; stroke: none;text-anchor:middle;font-family:sans-serif;font-style:normal;font-weight:normal" x="759.688" y="103.9">
        <tspan x="759.688" y="103.9">Views</tspan>
      </text>
    </g>
    <g>
      <polyline style="fill: none; stroke-opacity: 1; stroke-width: 2; stroke: #000000" points="671,100 680,100 680,100 689,100 "/>
      <polygon style="fill: #000000; fill-opacity: 1; stroke-opacity: 1; stroke-width: 2; stroke: #000000" fill-rule="evenodd" points="671,95 661,100 671,105 "/>
      <polygon style="fill: #000000; fill-opacity: 1; stroke-opacity: 1; stroke-width: 2; stroke: #000000" fill-rule="evenodd" points="689,105 699,100 689,95 "/>
    </g>
    <g>
      <polyline style="fill: none; stroke-opacity: 1; stroke-width: 2; stroke: #000000" points="760,149 760,140 759.688,140 759.688,131 "/>
      <polygon style="fill: #000000; fill-opacity: 1; stroke-opacity: 1; stroke-width: 2; stroke: #000000" fill-rule="evenodd" points="755,149 760,159 765,149 "/>
      <polygon style="fill: #000000; fill-opacity: 1; stroke-opacity: 1; stroke-width: 2; stroke: #000000" fill-rule="evenodd" points="764.688,131 759.688,121 754.688,131 "/>
    </g>
    <g>
      <polyline style="fill: none; stroke-opacity: 1; stroke-width: 2; stroke: #000000" points="760,249 760,240 760,240 760,231 "/>
      <polygon style="fill: #000000; fill-opacity: 1; stroke-opacity: 1; stroke-width: 2; stroke: #000000" fill-rule="evenodd" points="755,249 760,259 765,249 "/>
      <polygon style="fill: #000000; fill-opacity: 1; stroke-opacity: 1; stroke-width: 2; stroke: #000000" fill-rule="evenodd" points="765,231 760,221 755,231 "/>
    </g>
    <g>
      <polyline style="fill: none; stroke-opacity: 1; stroke-width: 2; stroke: #000000" points="428.996,249 428.996,240 428.684,240 428.684,231 "/>
      <polygon style="fill: #000000; fill-opacity: 1; stroke-opacity: 1; stroke-width: 2; stroke: #000000" fill-rule="evenodd" points="423.996,249 428.996,259 433.996,249 "/>
      <polygon style="fill: #000000; fill-opacity: 1; stroke-opacity: 1; stroke-width: 2; stroke: #000000" fill-rule="evenodd" points="433.684,231 428.684,221 423.684,231 "/>
    </g>
    <g>
      <polyline style="fill: none; stroke-opacity: 1; stroke-width: 2; stroke: #000000" points="759.688,69 759.688,60 759.688,60 759.688,51 "/>
      <polygon style="fill: #000000; fill-opacity: 1; stroke-opacity: 1; stroke-width: 2; stroke: #000000" fill-rule="evenodd" points="754.688,69 759.688,79 764.688,69 "/>
      <polygon style="fill: #000000; fill-opacity: 1; stroke-opacity: 1; stroke-width: 2; stroke: #000000" fill-rule="evenodd" points="764.688,51 759.688,41 754.688,51 "/>
    </g>
    <g>
      <polyline style="fill: none; stroke-opacity: 1; stroke-width: 2; stroke: #000000" points="629.405,-176.563 629.405,-181.023 630,-181.023 630,-190.839 "/>
      <polygon style="fill: #000000; fill-opacity: 1; stroke-opacity: 1; stroke-width: 2; stroke: #000000" fill-rule="evenodd" points="624.405,-176.563 629.405,-166.563 634.405,-176.563 "/>
      <polygon style="fill: #000000; fill-opacity: 1; stroke-opacity: 1; stroke-width: 2; stroke: #000000" fill-rule="evenodd" points="635,-190.839 630,-200.839 625,-190.839 "/>
    </g>
    <text font-size="12.8" style="fill: #ffffff; fill-opacity: 1; stroke: none;text-anchor:start;font-family:sans-serif;font-style:normal;font-weight:normal" x="862.752" y="-75.415">
      <tspan x="862.752" y="-75.415">static</tspan>
    </text>
    <text font-size="12.8" style="fill: #ffffff; fill-opacity: 1; stroke: none;text-anchor:start;font-family:sans-serif;font-style:normal;font-weight:normal" x="366.034" y="-72.7644">
      <tspan x="366.034" y="-72.7644">dynamic</tspan>
    </text>
    <g>
      <polyline style="fill: none; stroke-opacity: 1; stroke-width: 2; stroke: #000000" points="880,249 880,80 880,80 880,51 "/>
      <polygon style="fill: #000000; fill-opacity: 1; stroke-opacity: 1; stroke-width: 2; stroke: #000000" fill-rule="evenodd" points="875,249 880,259 885,249 "/>
      <polygon style="fill: #000000; fill-opacity: 1; stroke-opacity: 1; stroke-width: 2; stroke: #000000" fill-rule="evenodd" points="885,51 880,41 875,51 "/>
    </g>
    <g>
      <polyline style="fill: none; stroke-opacity: 1; stroke-width: 2; stroke: #000000" points="880,-11 880,-20 880,-20 880,-49 "/>
      <polygon style="fill: #000000; fill-opacity: 1; stroke-opacity: 1; stroke-width: 2; stroke: #000000" fill-rule="evenodd" points="875,-11 880,-1 885,-11 "/>
      <polygon style="fill: #000000; fill-opacity: 1; stroke-opacity: 1; stroke-width: 2; stroke: #000000" fill-rule="evenodd" points="885,-49 880,-59 875,-49 "/>
    </g>
  </g>
</svg>
