<svg width="30cm" height="30cm" viewBox="338 -262 583 582" xmlns="http://www.w3.org/2000/svg"><rect x="340" y="160" width="500" height="60" rx="10" ry="10" fill="#92b220"/><text font-size="12.8" x="590" y="193.9" text-anchor="middle" font-family="sans-serif" font-weight="700"><tspan x="590" y="193.9">Django</tspan></text><rect x="340" y="260" width="220" height="60" rx="10" ry="10" fill="#4f628a"/><text font-size="12.8" x="450" y="293.9" fill="#fff" text-anchor="middle" font-family="sans-serif" font-weight="400"><tspan x="450" y="293.9">Database</tspan></text><rect x="340" y="-40" width="580" height="180" rx="10" ry="10" fill="#fff" stroke-width="2" stroke="#000"/><text font-size="12.8" x="630" y="53.9" text-anchor="middle" font-family="sans-serif" font-weight="400"></text><rect x="580" y="260" width="340" height="60" rx="10" ry="10" fill="#4f628a"/><text font-size="12.8" x="750" y="293.9" fill="#fff" text-anchor="middle" font-family="sans-serif" font-weight="400"><tspan x="750" y="293.9">Filesystem (static, media, templates)</tspan></text><rect x="360" y="80" width="140" height="40" rx="10" ry="10" fill="#f3ad17"/><text font-size="12.8" x="430" y="103.9" text-anchor="middle" font-family="sans-serif" font-weight="400"><tspan x="430" y="103.9">Models</tspan></text><rect x="360" width="540" height="40" rx="10" ry="10" fill="#f3ad17"/><text font-size="12.8" x="630" y="23.9" text-anchor="middle" font-family="sans-serif" font-weight="400"><tspan x="630" y="23.9">URLs, Controller, Context, Domain selector</tspan></text><rect x="540" y="80" width="120" height="40" rx="10" ry="10" fill="#f3ad17"/><text font-size="12.8" x="600" y="103.9" text-anchor="middle" font-family="sans-serif" font-weight="400"><tspan x="600" y="103.9">Workflow</tspan></text><rect x="339.405" y="-165.563" width="580" height="105.563" rx="10" ry="10" fill="#e65911"/><text font-size="12.8" x="629.405" y="-124.882" fill="#fff" text-anchor="middle" font-family="sans-serif" font-weight="400"><tspan x="629.405" y="-124.882">Web server</tspan>  <tspan x="629.405" y="-92.882">[ www.starts.eu | vertigo.starts.eu | vertigo.ircam.fr | ... ? ]</tspan></text><rect x="340" y="-261.839" width="580" height="60" rx="10" ry="10" fill="#d00"/><text font-size="12.8" x="630" y="-227.939" fill="#fff" text-anchor="middle" font-family="sans-serif" font-weight="400"><tspan x="630" y="-227.939">Browser</tspan></text><g stroke-width="2" stroke="#000"><path fill="none" d="M511 100h18"/><path fill-rule="evenodd" d="M511 95l-10 5 10 5zM529 105l10-5-10-5z"/></g><g stroke-width="2" stroke="#000"><path fill="none" d="M600 69V51"/><path fill-rule="evenodd" d="M595 69l5 10 5-10zM605 51l-5-10-5 10z"/></g><g stroke-width="2" stroke="#000"><path fill="none" d="M429 149v-18"/><path fill-rule="evenodd" d="M424 149l5 10 5-10zM434 131l-5-10-5 10z"/></g><g stroke-width="2" stroke="#000"><path fill="none" d="M391.553-11v-38"/><path fill-rule="evenodd" d="M386.553-11l5 10 5-10zM396.553-49l-5-10-5 10z"/></g><text font-size="12.8" x="630" y="50" font-family="sans-serif" font-weight="400"></text><text font-size="12.8" x="568.078" y="-17.249" font-family="sans-serif" font-weight="700"><tspan x="568.078" y="-17.249">Mezzo + Ulysses</tspan></text><g stroke-width="2" stroke="#000"><path fill="none" d="M430 69V51"/><path fill-rule="evenodd" d="M425 69l5 10 5-10zM435 51l-5-10-5 10z"/></g><rect x="700" y="80" width="119.375" height="40" rx="10" ry="10" fill="#f3ad17"/><text font-size="12.8" x="759.688" y="103.9" text-anchor="middle" font-family="sans-serif" font-weight="400"><tspan x="759.688" y="103.9">Views</tspan></text><g stroke-width="2" stroke="#000"><path fill="none" d="M671 100h18"/><path fill-rule="evenodd" d="M671 95l-10 5 10 5zM689 105l10-5-10-5z"/></g><g stroke-width="2" stroke="#000"><path fill="none" d="M760 149v-9h-.312v-9"/><path fill-rule="evenodd" d="M755 149l5 10 5-10zM764.688 131l-5-10-5 10z"/></g><g stroke-width="2" stroke="#000"><path fill="none" d="M760 249v-18"/><path fill-rule="evenodd" d="M755 249l5 10 5-10zM765 231l-5-10-5 10z"/></g><g stroke-width="2" stroke="#000"><path fill="none" d="M428.996 249v-9h-.312v-9"/><path fill-rule="evenodd" d="M423.996 249l5 10 5-10zM433.684 231l-5-10-5 10z"/></g><g stroke-width="2" stroke="#000"><path fill="none" d="M759.688 69V51"/><path fill-rule="evenodd" d="M754.688 69l5 10 5-10zM764.688 51l-5-10-5 10z"/></g><g stroke-width="2" stroke="#000"><path fill="none" d="M629.405-176.563v-4.46H630v-9.816"/><path fill-rule="evenodd" d="M624.405-176.563l5 10 5-10zM635-190.839l-5-10-5 10z"/></g><text font-size="12.8" x="862.752" y="-75.415" fill="#fff" font-family="sans-serif" font-weight="400"><tspan x="862.752" y="-75.415">static</tspan></text><text font-size="12.8" x="366.034" y="-72.764" fill="#fff" font-family="sans-serif" font-weight="400"><tspan x="366.034" y="-72.764">dynamic</tspan></text><g stroke-width="2" stroke="#000"><path fill="none" d="M880 249V51"/><path fill-rule="evenodd" d="M875 249l5 10 5-10zM885 51l-5-10-5 10z"/></g><g stroke-width="2" stroke="#000"><path fill="none" d="M880-11v-38"/><path fill-rule="evenodd" d="M875-11l5 10 5-10zM885-49l-5-10-5 10z"/></g></svg>